<?xml version="1.0" encoding="utf-8" standalone="yes"?>
<!DOCTYPE svg PUBLIC "-//W3C//DTD SVG 1.1//EN" "http://www.w3.org/Graphics/SVG/1.1/DTD/svg11.dtd">
<svg width="982" height="626" viewBox="0 0 982 626" style="fill:none;stroke:none;fill-rule:evenodd;clip-rule:evenodd;stroke-linecap:round;stroke-linejoin:round;stroke-miterlimit:1.5;" version="1.1" xmlns="http://www.w3.org/2000/svg" xmlns:xlink="http://www.w3.org/1999/xlink"><style class="text-font-style fontImports" data-font-family="Roboto">@import url('https://fonts.googleapis.com/css2?family=Roboto:wght@400;700&amp;display=block');</style><rect id="" x="0" y="0" width="982" height="626" style="fill: none;"></rect><g id="items" style="isolation: isolate"><g id="blend" style="mix-blend-mode: normal"><g id="g-root-tf_v2zn4c1ifi9zg-fill" data-item-order="-611520" transform="translate(-9, -9)"></g><g id="g-root--1.line_fr_1lymyfg1if8g7a-fill" data-item-order="-492051" transform="translate(146.5, 231)"></g><g id="g-root--1.line_1_fr_1hitgb01if8gzk-fill" data-item-order="-492047" transform="translate(350.5, 231)"></g><g id="g-root--1.line_2_fr_147zf0s1if8feq-fill" data-item-order="-492043" transform="translate(554.5, 231)"></g><g id="g-root--1.line_3_fr_vccerw1if8g7g-fill" data-item-order="-492039" transform="translate(758.5, 231)"></g><g id="g-root-1.g-1_1_fr_qwiwng1if8gzq-fill" data-item-order="-492036" transform="translate(85.00003051757812, 279)"></g><g id="g-root-2.g-2_fr_dbp9zg1if9tzc-fill" data-item-order="-492032" transform="translate(289.0000305175781, 279)"></g><g id="g-root-3.g-3_1_fr_8vvrv01if9urm-fill" data-item-order="-492028" transform="translate(493, 279)"></g><g id="g-root-4.g-4_fr_8rm41if9vkc-fill" data-item-order="-492024" transform="translate(697, 279)"></g><g id="g-root-tx_afterpag_1hapa6k1if9ukn-fill" data-item-order="0" transform="translate(93, 123)"><g id="tx_afterpag_1hapa6k1if9ukn-fill" stroke="none" fill="#f4f4f4"><g><text style="font: bold 20px Roboto, sans-serif; white-space: pre;" font-weight="bold" font-size="20px" font-family="Roboto, sans-serif"><tspan x="13.42" y="34" dominant-baseline="ideographic">After Page </tspan><tspan x="39.46" y="58" dominant-baseline="ideographic">Load</tspan></text></g></g></g><g id="g-root-tx_specific_93dk241if5lol-fill" data-item-order="0" transform="translate(483, 123)"><g id="tx_specific_93dk241if5lol-fill" stroke="none" fill="#f4f4f4"><g><text style="font: bold 20px Roboto, sans-serif; white-space: pre;" font-weight="bold" font-size="20px" font-family="Roboto, sans-serif"><tspan x="11.9" y="34" dominant-baseline="ideographic">Specific Button </tspan><tspan x="53.08" y="58" dominant-baseline="ideographic">Clicks</tspan></text></g></g></g><g id="g-root-incr_qoeqj01if9ukp-fill" data-item-order="0" transform="translate(321, 159)"></g><g id="g-root-exit_8wic3w1if71fl-fill" data-item-order="0" transform="translate(729, 159)"></g><g id="g-root-tx_widgetap_1cuvs241if9vcw-fill" data-item-order="0" transform="translate(69, 183)"><g id="tx_widgetap_1cuvs241if9vcw-fill" stroke="none" fill="#f4f4f4"><g><text style="font: 15px Roboto, sans-serif; white-space: pre;" font-size="15px" font-family="Roboto, sans-serif"><tspan x="17.15" y="28" dominant-baseline="ideographic">Widget appears after </tspan><tspan x="22" y="46" dominant-baseline="ideographic">the page fully loads</tspan></text></g></g></g><g id="g-root-tx_widgettr_zqx1vw1if5nuo-fill" data-item-order="0" transform="translate(483, 183)"><g id="tx_widgettr_zqx1vw1if5nuo-fill" stroke="none" fill="#f4f4f4"><g><text style="font: 15px Roboto, sans-serif; white-space: pre;" font-size="15px" font-family="Roboto, sans-serif"><tspan x="12.57" y="28" dominant-baseline="ideographic">Widget triggers after </tspan><tspan x="25.22" y="46" dominant-baseline="ideographic">key button clicks</tspan></text></g></g></g><g id="g-root-load_1ursbt81if1erv-fill" data-item-order="0" transform="translate(117, 435)"></g><g id="g-root-tx_scrollpe_913g1ifi800-fill" data-item-order="0" transform="translate(297, 435)"><g id="tx_scrollpe_913g1ifi800-fill" stroke="none" fill="#f4f4f4"><g><text style="font: bold 20px Roboto, sans-serif; white-space: pre;" font-weight="bold" font-size="20px" font-family="Roboto, sans-serif"><tspan x="38.18" y="34" dominant-baseline="ideographic">Scroll </tspan><tspan x="12.59" y="58" dominant-baseline="ideographic">Percentage</tspan></text></g></g></g><g id="g-root-1_meu8r01ifi9dt-fill" data-item-order="0" transform="translate(525, 435)"></g><g id="g-root-tx_exitinte_1ut1d581ifgvm1-fill" data-item-order="0" transform="translate(705, 435)"><g id="tx_exitinte_1ut1d581ifgvm1-fill" stroke="none" fill="#f4f4f4"><g><text style="font: bold 20px Roboto, sans-serif; white-space: pre;" font-weight="bold" font-size="20px" font-family="Roboto, sans-serif"><tspan x="17.02" y="34" dominant-baseline="ideographic">Exit-Intent</tspan></text></g></g></g><g id="g-root-tx_widgetde_1d2dtqk1ifgutf-fill" data-item-order="0" transform="translate(687, 471)"><g id="tx_widgetde_1d2dtqk1ifgutf-fill" stroke="none" fill="#f4f4f4"><g><text style="font: 15px Roboto, sans-serif; white-space: pre;" font-size="15px" font-family="Roboto, sans-serif"><tspan x="21.09" y="28" dominant-baseline="ideographic">Widget deploys as </tspan><tspan x="13.21" y="46" dominant-baseline="ideographic">users intend to leave</tspan></text></g></g></g><g id="g-root-tx_widgetsh_1lrrzyk1ifi8e8-fill" data-item-order="0" transform="translate(279, 495)"><g id="tx_widgetsh_1lrrzyk1ifi8e8-fill" stroke="none" fill="#f4f4f4"><g><text style="font: 15px Roboto, sans-serif; white-space: pre;" font-size="15px" font-family="Roboto, sans-serif"><tspan x="15.61" y="31" dominant-baseline="ideographic">Widget shows after </tspan><tspan x="31.01" y="49" dominant-baseline="ideographic">a certain scroll </tspan><tspan x="42.71" y="67" dominant-baseline="ideographic">percentage</tspan></text></g></g></g><g id="g-root-tf_v2zn4c1ifi9zg-stroke" data-item-order="-611520" transform="translate(-9, -9)"></g><g id="g-root--1.line_fr_1lymyfg1if8g7a-stroke" data-item-order="-492051" transform="translate(146.5, 231)"><g id="-1.line_fr_1lymyfg1if8g7a-stroke" fill="none" stroke-linecap="round" stroke-linejoin="round" stroke-miterlimit="4" stroke="#f4f4f4" stroke-width="2"><g><path d="M 10 202L 10 10"></path></g></g></g><g id="g-root--1.line_1_fr_1hitgb01if8gzk-stroke" data-item-order="-492047" transform="translate(350.5, 231)"><g id="-1.line_1_fr_1hitgb01if8gzk-stroke" fill="none" stroke-linecap="round" stroke-linejoin="round" stroke-miterlimit="4" stroke="#f4f4f4" stroke-width="2"><g><path d="M 10 202L 10 10"></path></g></g></g><g id="g-root--1.line_2_fr_147zf0s1if8feq-stroke" data-item-order="-492043" transform="translate(554.5, 231)"><g id="-1.line_2_fr_147zf0s1if8feq-stroke" fill="none" stroke-linecap="round" stroke-linejoin="round" stroke-miterlimit="4" stroke="#f4f4f4" stroke-width="2"><g><path d="M 9.999992 202L 9.999992 10"></path></g></g></g><g id="g-root--1.line_3_fr_vccerw1if8g7g-stroke" data-item-order="-492039" transform="translate(758.5, 231)"><g id="-1.line_3_fr_vccerw1if8g7g-stroke" fill="none" stroke-linecap="round" stroke-linejoin="round" stroke-miterlimit="4" stroke="#f4f4f4" stroke-width="2"><g><path d="M 10 202L 10 10"></path></g></g></g><g id="g-root-1.g-1_1_fr_qwiwng1if8gzq-stroke" data-item-order="-492036" transform="translate(85.00003051757812, 279)"><g id="1.g-1_1_fr_qwiwng1if8gzq-stroke" fill="none" stroke-linecap="round" stroke-linejoin="round" stroke-miterlimit="4" stroke="#4f91fc" stroke-width="2"><g><path d="M 149.501869 13.1012C 145.370769 8.9678 138.668969 8.9661 134.535669 13.0974C 130.403969 17.2272 130.403969 23.923 134.535669 28.0529L 153.913969 47.4222L 99.582669 47.4222C 93.737969 47.4222 88.999969 52.1581 88.999969 58.0001C 88.999969 63.842 93.737969 68.5779 99.582669 68.5779L 153.913869 68.5779L 134.535669 87.9471C 130.403969 92.077 130.403969 98.7728 134.535669 102.9026C 138.668969 107.0339 145.370769 107.0322 149.501969 102.8988L 186.904169 65.4758C 191.031869 61.3458 191.031869 54.6542 186.904169 50.5242L 149.501869 13.1012ZM 42.906869 51.2384L 49.668869 58.0003L 42.906869 64.7623C 41.974369 65.6948 41.974369 67.2067 42.906869 68.1392C 43.839669 69.072 45.352269 69.0716 46.284669 68.1383L 54.725969 59.6884C 55.657569 58.7558 55.657569 57.2449 54.725969 56.3123L 46.284669 47.8623C 45.352269 46.929 43.839669 46.9286 42.906869 47.8615C 41.974369 48.794 41.974369 50.3059 42.906869 51.2384ZM 26.803069 51.2384L 33.565069 58.0003L 26.803069 64.7623C 25.870569 65.6948 25.870569 67.2067 26.803069 68.1392C 27.735969 69.072 29.248469 69.0716 30.180869 68.1383L 38.622269 59.6884C 39.553869 58.7558 39.553869 57.2449 38.622269 56.3123L 30.180869 47.8623C 29.248469 46.929 27.735969 46.9286 26.803069 47.8615C 25.870569 48.794 25.870569 50.3059 26.803069 51.2384ZM 10.699369 51.2381L 17.461269 58.0001L 10.699369 64.7621C 9.766869 65.6946 9.766869 67.2064 10.699369 68.1389C 11.632169 69.0718 13.144769 69.0714 14.077069 68.1381L 22.518469 59.6881C 23.450069 58.7556 23.450069 57.2446 22.518469 56.3121L 14.077069 47.8621C 13.144769 46.9288 11.632169 46.9284 10.699369 47.8612C 9.766869 48.7937 9.766869 50.3056 10.699369 51.2381ZM 71.949869 68.5775C 66.107869 68.5775 61.372069 63.8417 61.372069 57.9997C 61.372069 52.1577 66.107869 47.4219 71.949869 47.4219C 77.791869 47.4219 82.527669 52.1577 82.527669 57.9997C 82.527669 63.8417 77.791869 68.5775 71.949869 68.5775Z"></path></g></g></g><g id="g-root-2.g-2_fr_dbp9zg1if9tzc-stroke" data-item-order="-492032" transform="translate(289.0000305175781, 279)"><g id="2.g-2_fr_dbp9zg1if9tzc-stroke" fill="none" stroke-linecap="round" stroke-linejoin="round" stroke-miterlimit="4" stroke="#43dd93" stroke-width="2"><g><path d="M 149.501869 13.1012C 145.370769 8.9678 138.668969 8.9661 134.535669 13.0974C 130.403969 17.2272 130.403969 23.923 134.535669 28.0529L 153.913969 47.4222L 99.582669 47.4222C 93.737969 47.4222 88.999969 52.1581 88.999969 58.0001C 88.999969 63.842 93.737969 68.5779 99.582669 68.5779L 153.913869 68.5779L 134.535669 87.9471C 130.403969 92.077 130.403969 98.7728 134.535669 102.9026C 138.668969 107.0339 145.370769 107.0322 149.501969 102.8988L 186.904169 65.4758C 191.031869 61.3458 191.031869 54.6542 186.904169 50.5242L 149.501869 13.1012ZM 42.906869 51.2384L 49.668869 58.0003L 42.906869 64.7623C 41.974369 65.6948 41.974369 67.2067 42.906869 68.1392C 43.839669 69.072 45.352269 69.0716 46.284669 68.1383L 54.725969 59.6884C 55.657569 58.7558 55.657569 57.2449 54.725969 56.3123L 46.284669 47.8623C 45.352269 46.929 43.839669 46.9286 42.906869 47.8615C 41.974369 48.794 41.974369 50.3059 42.906869 51.2384ZM 26.803069 51.2384L 33.565069 58.0003L 26.803069 64.7623C 25.870569 65.6948 25.870569 67.2067 26.803069 68.1392C 27.735969 69.072 29.248469 69.0716 30.180869 68.1383L 38.622269 59.6884C 39.553869 58.7558 39.553869 57.2449 38.622269 56.3123L 30.180869 47.8623C 29.248469 46.929 27.735969 46.9286 26.803069 47.8615C 25.870569 48.794 25.870569 50.3059 26.803069 51.2384ZM 10.699369 51.2381L 17.461269 58.0001L 10.699369 64.7621C 9.766869 65.6946 9.766869 67.2064 10.699369 68.1389C 11.632169 69.0718 13.144769 69.0714 14.077069 68.1381L 22.518469 59.6881C 23.450069 58.7556 23.450069 57.2446 22.518469 56.3121L 14.077069 47.8621C 13.144769 46.9288 11.632169 46.9284 10.699369 47.8612C 9.766869 48.7937 9.766869 50.3056 10.699369 51.2381ZM 71.949869 68.5775C 66.107869 68.5775 61.372069 63.8417 61.372069 57.9997C 61.372069 52.1577 66.107869 47.4219 71.949869 47.4219C 77.791869 47.4219 82.527669 52.1577 82.527669 57.9997C 82.527669 63.8417 77.791869 68.5775 71.949869 68.5775Z"></path></g></g></g><g id="g-root-3.g-3_1_fr_8vvrv01if9urm-stroke" data-item-order="-492028" transform="translate(493, 279)"><g id="3.g-3_1_fr_8vvrv01if9urm-stroke" fill="none" stroke-linecap="round" stroke-linejoin="round" stroke-miterlimit="4" stroke="#f79438" stroke-width="2"><g><path d="M 149.5019 13.1012C 145.3708 8.9678 138.669 8.9661 134.5357 13.0974C 130.404 17.2272 130.404 23.923 134.5357 28.0529L 153.914 47.4222L 99.5827 47.4222C 93.738 47.4222 89 52.1581 89 58.0001C 89 63.842 93.738 68.5779 99.5827 68.5779L 153.9139 68.5779L 134.5357 87.9471C 130.404 92.077 130.404 98.7728 134.5357 102.9026C 138.669 107.0339 145.3708 107.0322 149.502 102.8988L 186.9042 65.4758C 191.0319 61.3458 191.0319 54.6542 186.9042 50.5242L 149.5019 13.1012ZM 42.9069 51.2384L 49.6689 58.0003L 42.9069 64.7623C 41.9744 65.6948 41.9744 67.2067 42.9069 68.1392C 43.8397 69.072 45.3523 69.0716 46.2847 68.1383L 54.726 59.6884C 55.6576 58.7558 55.6576 57.2449 54.726 56.3123L 46.2847 47.8623C 45.3523 46.929 43.8397 46.9286 42.9069 47.8615C 41.9744 48.794 41.9744 50.3059 42.9069 51.2384ZM 26.8031 51.2384L 33.5651 58.0003L 26.8031 64.7623C 25.8706 65.6948 25.8706 67.2067 26.8031 68.1392C 27.736 69.072 29.2485 69.0716 30.1809 68.1383L 38.6223 59.6884C 39.5539 58.7558 39.5539 57.2449 38.6223 56.3123L 30.1809 47.8623C 29.2485 46.929 27.736 46.9286 26.8031 47.8615C 25.8706 48.794 25.8706 50.3059 26.8031 51.2384ZM 10.6994 51.2381L 17.4613 58.0001L 10.6994 64.7621C 9.7669 65.6946 9.7669 67.2064 10.6994 68.1389C 11.6322 69.0718 13.1448 69.0714 14.0771 68.1381L 22.5185 59.6881C 23.4501 58.7556 23.4501 57.2446 22.5185 56.3121L 14.0771 47.8621C 13.1448 46.9288 11.6322 46.9284 10.6994 47.8612C 9.7669 48.7937 9.7669 50.3056 10.6994 51.2381ZM 71.9499 68.5775C 66.1079 68.5775 61.3721 63.8417 61.3721 57.9997C 61.3721 52.1577 66.1079 47.4219 71.9499 47.4219C 77.7919 47.4219 82.5277 52.1577 82.5277 57.9997C 82.5277 63.8417 77.7919 68.5775 71.9499 68.5775Z"></path></g></g></g><g id="g-root-4.g-4_fr_8rm41if9vkc-stroke" data-item-order="-492024" transform="translate(697, 279)"><g id="4.g-4_fr_8rm41if9vkc-stroke" fill="none" stroke-linecap="round" stroke-linejoin="round" stroke-miterlimit="4" stroke="#fb6762" stroke-width="2"><g><path d="M 149.5019 13.1012C 145.3708 8.9678 138.669 8.9661 134.5357 13.0974C 130.404 17.2272 130.404 23.923 134.5357 28.0529L 153.914 47.4222L 99.5827 47.4222C 93.738 47.4222 89 52.1581 89 58.0001C 89 63.842 93.738 68.5779 99.5827 68.5779L 153.9139 68.5779L 134.5357 87.9471C 130.404 92.077 130.404 98.7728 134.5357 102.9026C 138.669 107.0339 145.3708 107.0322 149.502 102.8988L 186.9042 65.4758C 191.0319 61.3458 191.0319 54.6542 186.9042 50.5242L 149.5019 13.1012ZM 42.9069 51.2384L 49.6689 58.0003L 42.9069 64.7623C 41.9744 65.6948 41.9744 67.2067 42.9069 68.1392C 43.8397 69.072 45.3523 69.0716 46.2847 68.1383L 54.726 59.6884C 55.6576 58.7558 55.6576 57.2449 54.726 56.3123L 46.2847 47.8623C 45.3523 46.929 43.8397 46.9286 42.9069 47.8615C 41.9744 48.794 41.9744 50.3059 42.9069 51.2384ZM 26.8031 51.2384L 33.5651 58.0003L 26.8031 64.7623C 25.8706 65.6948 25.8706 67.2067 26.8031 68.1392C 27.736 69.072 29.2485 69.0716 30.1809 68.1383L 38.6223 59.6884C 39.5539 58.7558 39.5539 57.2449 38.6223 56.3123L 30.1809 47.8623C 29.2485 46.929 27.736 46.9286 26.8031 47.8615C 25.8706 48.794 25.8706 50.3059 26.8031 51.2384ZM 10.6994 51.2381L 17.4613 58.0001L 10.6994 64.7621C 9.7669 65.6946 9.7669 67.2064 10.6994 68.1389C 11.6322 69.0718 13.1448 69.0714 14.0771 68.1381L 22.5185 59.6881C 23.4501 58.7556 23.4501 57.2446 22.5185 56.3121L 14.0771 47.8621C 13.1448 46.9288 11.6322 46.9284 10.6994 47.8612C 9.7669 48.7937 9.7669 50.3056 10.6994 51.2381ZM 71.9499 68.5775C 66.1079 68.5775 61.3721 63.8417 61.3721 57.9997C 61.3721 52.1577 66.1079 47.4219 71.9499 47.4219C 77.7919 47.4219 82.5277 52.1577 82.5277 57.9997C 82.5277 63.8417 77.7919 68.5775 71.9499 68.5775Z"></path></g></g></g><g id="g-root-tx_afterpag_1hapa6k1if9ukn-stroke" data-item-order="0" transform="translate(93, 123)"></g><g id="g-root-tx_specific_93dk241if5lol-stroke" data-item-order="0" transform="translate(483, 123)"></g><g id="g-root-incr_qoeqj01if9ukp-stroke" data-item-order="0" transform="translate(321, 159)"><g id="incr_qoeqj01if9ukp-stroke" fill="none" stroke-linecap="round" stroke-linejoin="round" stroke-miterlimit="4" stroke="#43dd93" stroke-width="2"><g><path d="M 12.142857 22.857143C 12.142858 28.774479 16.939806 33.571426 22.857143 33.571426C 28.774479 33.571426 33.571426 28.774479 33.571426 22.857143C 33.571426 16.939806 28.774479 12.142858 22.857143 12.142858C 16.939806 12.142858 12.142858 16.939806 12.142858 22.857143M 46.42857 57.142857C 46.42857 63.060196 51.225521 67.85714 57.142857 67.85714C 63.060196 67.85714 67.85714 63.060196 67.85714 57.142857C 67.85714 51.225521 63.060196 46.42857 57.142857 46.42857C 51.225521 46.42857 46.42857 51.225521 46.42857 57.142857M 12.142857 67.85714L 67.85714 12.142857M 48.571426 12.142857L 67.85714 12.142857L 67.85714 31.42857"></path></g></g></g><g id="g-root-exit_8wic3w1if71fl-stroke" data-item-order="0" transform="translate(729, 159)"><g id="exit_8wic3w1if71fl-stroke" fill="none" stroke-linecap="round" stroke-linejoin="round" stroke-miterlimit="4" stroke="#fb6762" stroke-width="2"><g><path d="M 16.25 25L 63.75 25C 63.75 25 68.75 25 68.75 30L 68.75 50C 68.75 50 68.75 55 63.75 55L 16.25 55C 16.25 55 11.25 55 11.25 50L 11.25 30C 11.25 30 11.25 25 16.25 25M 46.247498 32.5L 46.247498 47.5M 43.747498 47.5L 48.747498 47.5M 43.747498 32.5L 48.747498 32.5M 31.254999 47.5L 38.755001 32.5M 38.755001 47.5L 31.254999 32.5M 26.25 47.5L 21.25 47.5C 19.869287 47.5 18.75 46.380714 18.75 45L 18.75 35C 18.75 33.619286 19.869287 32.5 21.25 32.5L 26.25 32.5M 18.76 40L 23.76 40M 53.755001 32.5L 61.255001 32.5M 57.505001 32.5L 57.505001 47.5"></path></g></g></g><g id="g-root-tx_widgetap_1cuvs241if9vcw-stroke" data-item-order="0" transform="translate(69, 183)"></g><g id="g-root-tx_widgettr_zqx1vw1if5nuo-stroke" data-item-order="0" transform="translate(483, 183)"></g><g id="g-root-load_1ursbt81if1erv-stroke" data-item-order="0" transform="translate(117, 435)"><g id="load_1ursbt81if1erv-stroke" fill="none" stroke-linecap="round" stroke-linejoin="round" stroke-miterlimit="4" stroke="#4f91fc" stroke-width="2"><g><path d="M 37.5 15C 37.5 13.619288 38.619286 12.5 40 12.5C 41.380714 12.5 42.5 13.619288 42.5 15L 42.5 22.5C 42.5 23.880713 41.380714 25 40 25C 38.619286 25 37.5 23.880713 37.5 22.5ZM 20.955 24.3825C 19.978146 23.403576 19.979826 21.818104 20.95875 20.841251C 21.937674 19.864397 23.523146 19.866076 24.5 20.845001L 29.795 26.147501C 30.44532 26.774729 30.706606 27.704046 30.478432 28.578272C 30.250261 29.452497 29.568138 30.135586 28.694237 30.364994C 27.820335 30.594404 26.890648 30.334433 26.262501 29.684999ZM 12.5 40C 12.5 38.619286 13.619288 37.5 15 37.5L 22.5 37.5C 23.880713 37.5 25 38.619286 25 40C 25 41.380714 23.880713 42.5 22.5 42.5L 15 42.5C 13.619288 42.5 12.5 41.380714 12.5 40ZM 20.3225 59.629997C 19.853058 59.161079 19.589283 58.524773 19.589283 57.861252C 19.589283 57.197727 19.853058 56.561424 20.3225 56.092499L 25.622499 50.787502C 26.598665 49.81065 28.181898 49.810089 29.158752 50.786251C 30.135605 51.762421 30.136166 53.34565 29.160002 54.322506L 23.8575 59.627499C 22.881941 60.604149 21.29944 60.605263 20.3225 59.629997ZM 37.5 57.5C 37.5 56.119289 38.619286 55 40 55C 41.380714 55 42.5 56.119289 42.5 57.5L 42.5 65C 42.5 66.380707 41.380714 67.5 40 67.5C 38.619286 67.5 37.5 66.380707 37.5 65ZM 51 54.435001C 50.022461 53.457458 50.022461 51.872551 51.000004 50.895004C 51.977547 49.917458 53.562462 49.917458 54.540005 50.895004L 59.845001 56.195C 60.826687 57.169094 60.832844 58.75457 59.858749 59.736252C 58.884659 60.717941 57.299191 60.724098 56.317501 59.750004ZM 55 40C 55 38.619286 56.119289 37.5 57.5 37.5L 65 37.5C 66.380707 37.5 67.5 38.619286 67.5 40C 67.5 41.380714 66.380707 42.5 65 42.5L 57.5 42.5C 56.119289 42.5 55 41.380714 55 40ZM 50.545002 29.344999C 50.074791 28.875978 49.810532 28.239136 49.810532 27.575001C 49.810532 26.910864 50.074791 26.274021 50.545002 25.805L 55.842499 20.5C 56.820049 19.522457 58.404961 19.522457 59.382507 20.5C 60.360046 21.477545 60.360046 23.062456 59.382507 24.040001L 54.080002 29.344999C 53.103752 30.320953 51.521248 30.320953 50.545002 29.344999Z"></path></g></g></g><g id="g-root-tx_scrollpe_913g1ifi800-stroke" data-item-order="0" transform="translate(297, 435)"></g><g id="g-root-1_meu8r01ifi9dt-stroke" data-item-order="0" transform="translate(525, 435)"><g id="1_meu8r01ifi9dt-stroke" fill="none" stroke-linecap="round" stroke-linejoin="round" stroke-miterlimit="4" stroke="#f79438" stroke-width="2"><g><path d="M 10 10M 56.252499 28.7425L 48.752502 28.7425M 10 10M 51.252499 16.2425L 46.252502 21.2425M 10 10M 38.752502 11.245L 38.752502 18.7425M 10 10M 23.752501 16.2425L 28.752501 21.2425M 10 10M 18.752501 28.7425L 26.252501 28.7425M 10 10M 31.635 68.75L 22.1175 57.297501C 20.792906 55.704834 21.010124 53.339943 22.602688 52.015224C 24.19525 50.690506 26.560156 50.907539 27.885 52.5L 33.75 59.5625L 33.75 35C 33.75 32.928932 35.428932 31.25 37.5 31.25C 39.571068 31.25 41.25 32.928932 41.25 35L 41.25 51.25L 48.75 51.25C 54.272846 51.25 58.75 55.727154 58.75 61.25L 58.75 68.75"></path></g></g></g><g id="g-root-tx_exitinte_1ut1d581ifgvm1-stroke" data-item-order="0" transform="translate(705, 435)"></g><g id="g-root-tx_widgetde_1d2dtqk1ifgutf-stroke" data-item-order="0" transform="translate(687, 471)"></g><g id="g-root-tx_widgetsh_1lrrzyk1ifi8e8-stroke" data-item-order="0" transform="translate(279, 495)"></g></g></g></svg>